<mxfile host="Electron" agent="Mozilla/5.0 (Windows NT 10.0; Win64; x64) AppleWebKit/537.36 (KHTML, like Gecko) draw.io/25.0.2 Chrome/128.0.6613.186 Electron/32.2.5 Safari/537.36" version="25.0.2">
  <diagram name="Page-1" id="T8WN_jwqhuDgZptqnsGo">
    <mxGraphModel dx="1036" dy="629" grid="1" gridSize="10" guides="1" tooltips="1" connect="1" arrows="1" fold="1" page="1" pageScale="1" pageWidth="850" pageHeight="1100" math="0" shadow="0">
      <root>
        <mxCell id="0" />
        <mxCell id="1" parent="0" />
        <mxCell id="_PfKt5yGg2HPXVgFVy7c-2" value="" style="edgeStyle=orthogonalEdgeStyle;rounded=0;orthogonalLoop=1;jettySize=auto;html=1;" edge="1" parent="1" source="2odPza4l2Z26RWtDfoM8-1" target="_PfKt5yGg2HPXVgFVy7c-1">
          <mxGeometry relative="1" as="geometry" />
        </mxCell>
        <mxCell id="2odPza4l2Z26RWtDfoM8-1" value="Start" style="ellipse;whiteSpace=wrap;html=1;" parent="1" vertex="1">
          <mxGeometry x="330" y="80" width="120" height="80" as="geometry" />
        </mxCell>
        <mxCell id="_PfKt5yGg2HPXVgFVy7c-4" value="" style="edgeStyle=orthogonalEdgeStyle;rounded=0;orthogonalLoop=1;jettySize=auto;html=1;" edge="1" parent="1" source="_PfKt5yGg2HPXVgFVy7c-1" target="_PfKt5yGg2HPXVgFVy7c-3">
          <mxGeometry relative="1" as="geometry" />
        </mxCell>
        <mxCell id="_PfKt5yGg2HPXVgFVy7c-1" value="Read a1,b1 number" style="shape=parallelogram;perimeter=parallelogramPerimeter;whiteSpace=wrap;html=1;fixedSize=1;" vertex="1" parent="1">
          <mxGeometry x="310" y="210" width="160" height="70" as="geometry" />
        </mxCell>
        <mxCell id="_PfKt5yGg2HPXVgFVy7c-12" style="edgeStyle=orthogonalEdgeStyle;rounded=0;orthogonalLoop=1;jettySize=auto;html=1;entryX=0.5;entryY=0;entryDx=0;entryDy=0;" edge="1" parent="1" source="_PfKt5yGg2HPXVgFVy7c-3" target="_PfKt5yGg2HPXVgFVy7c-11">
          <mxGeometry relative="1" as="geometry" />
        </mxCell>
        <mxCell id="_PfKt5yGg2HPXVgFVy7c-13" style="edgeStyle=orthogonalEdgeStyle;rounded=0;orthogonalLoop=1;jettySize=auto;html=1;exitX=0;exitY=0.5;exitDx=0;exitDy=0;entryX=0.5;entryY=0;entryDx=0;entryDy=0;" edge="1" parent="1" source="_PfKt5yGg2HPXVgFVy7c-3" target="_PfKt5yGg2HPXVgFVy7c-6">
          <mxGeometry relative="1" as="geometry" />
        </mxCell>
        <mxCell id="_PfKt5yGg2HPXVgFVy7c-3" value="if a1&amp;lt;b1" style="rhombus;whiteSpace=wrap;html=1;" vertex="1" parent="1">
          <mxGeometry x="350" y="330" width="80" height="80" as="geometry" />
        </mxCell>
        <mxCell id="_PfKt5yGg2HPXVgFVy7c-15" style="edgeStyle=orthogonalEdgeStyle;rounded=0;orthogonalLoop=1;jettySize=auto;html=1;exitX=0.5;exitY=1;exitDx=0;exitDy=0;entryX=0.5;entryY=0;entryDx=0;entryDy=0;" edge="1" parent="1" source="_PfKt5yGg2HPXVgFVy7c-6" target="_PfKt5yGg2HPXVgFVy7c-14">
          <mxGeometry relative="1" as="geometry" />
        </mxCell>
        <mxCell id="_PfKt5yGg2HPXVgFVy7c-6" value="t = b1" style="rounded=0;whiteSpace=wrap;html=1;" vertex="1" parent="1">
          <mxGeometry x="150" y="470" width="120" height="60" as="geometry" />
        </mxCell>
        <mxCell id="_PfKt5yGg2HPXVgFVy7c-10" value="false" style="text;html=1;align=center;verticalAlign=middle;resizable=0;points=[];autosize=1;strokeColor=none;fillColor=none;" vertex="1" parent="1">
          <mxGeometry x="275" y="338" width="50" height="30" as="geometry" />
        </mxCell>
        <mxCell id="_PfKt5yGg2HPXVgFVy7c-18" value="" style="edgeStyle=orthogonalEdgeStyle;rounded=0;orthogonalLoop=1;jettySize=auto;html=1;" edge="1" parent="1" source="_PfKt5yGg2HPXVgFVy7c-11" target="_PfKt5yGg2HPXVgFVy7c-17">
          <mxGeometry relative="1" as="geometry" />
        </mxCell>
        <mxCell id="_PfKt5yGg2HPXVgFVy7c-11" value="t = a1" style="rounded=0;whiteSpace=wrap;html=1;" vertex="1" parent="1">
          <mxGeometry x="490" y="470" width="120" height="60" as="geometry" />
        </mxCell>
        <mxCell id="_PfKt5yGg2HPXVgFVy7c-14" value="print t" style="shape=parallelogram;perimeter=parallelogramPerimeter;whiteSpace=wrap;html=1;fixedSize=1;" vertex="1" parent="1">
          <mxGeometry x="150" y="590" width="120" height="60" as="geometry" />
        </mxCell>
        <mxCell id="_PfKt5yGg2HPXVgFVy7c-16" value="true" style="text;html=1;align=center;verticalAlign=middle;resizable=0;points=[];autosize=1;strokeColor=none;fillColor=none;" vertex="1" parent="1">
          <mxGeometry x="440" y="338" width="40" height="30" as="geometry" />
        </mxCell>
        <mxCell id="_PfKt5yGg2HPXVgFVy7c-17" value="print t" style="shape=parallelogram;perimeter=parallelogramPerimeter;whiteSpace=wrap;html=1;fixedSize=1;" vertex="1" parent="1">
          <mxGeometry x="490" y="590" width="120" height="60" as="geometry" />
        </mxCell>
      </root>
    </mxGraphModel>
  </diagram>
</mxfile>
